<?xml version="1.0" standalone="no"?>
<!DOCTYPE svg PUBLIC "-//W3C//DTD SVG 20010904//EN"
 "http://www.w3.org/TR/2001/REC-SVG-20010904/DTD/svg10.dtd">
<svg version="1.0" xmlns="http://www.w3.org/2000/svg"
 width="474.000000pt" height="347.000000pt" viewBox="0 0 474.000000 347.000000"
 preserveAspectRatio="xMidYMid meet">

<g transform="translate(0.000000,347.000000) scale(0.100000,-0.100000)"
fill="#000000" stroke="none">
<path d="M3606 3252 c-4 -7 -17 -12 -30 -12 -32 0 -77 -23 -72 -37 3 -7 -1
-10 -8 -7 -7 3 -25 -10 -40 -28 -14 -18 -30 -38 -36 -44 -5 -7 -7 -14 -4 -17
3 -3 -6 -27 -19 -54 -13 -26 -23 -56 -22 -65 2 -10 -2 -21 -7 -25 -7 -3 -8 -1
-4 5 4 7 2 12 -3 12 -6 0 -11 -3 -12 -7 -3 -32 -11 -46 -38 -69 -17 -14 -29
-30 -25 -35 3 -5 0 -9 -6 -9 -7 0 -10 -6 -7 -13 3 -8 -7 -19 -25 -26 -19 -9
-27 -18 -24 -28 3 -8 2 -12 -3 -8 -5 3 -24 -7 -43 -22 -18 -15 -27 -20 -19
-10 9 12 10 17 2 17 -7 0 -9 5 -5 13 4 6 -2 3 -14 -7 -23 -20 -30 -32 -12 -21
23 14 7 -12 -18 -29 -15 -11 -21 -13 -14 -6 28 31 4 36 -37 8 -13 -9 -32 -15
-42 -13 -11 2 -17 0 -14 -6 4 -5 12 -6 18 -3 9 5 9 3 0 -6 -10 -11 -15 -11
-28 0 -13 11 -14 10 -9 -4 5 -12 2 -15 -10 -10 -9 3 -16 1 -16 -4 0 -6 10 -9
23 -7 12 2 45 6 72 9 73 8 255 61 335 98 52 24 153 98 193 142 26 29 27 35 23
111 -2 44 0 109 5 145 10 67 8 93 -5 72z m-270 -351 c-4 -5 -1 -12 4 -14 6 -3
5 -4 -2 -3 -7 2 -22 -1 -33 -6 -16 -7 -16 -5 4 11 25 22 36 27 27 12z m-16
-35 c0 -2 -8 -10 -17 -17 -16 -13 -17 -12 -4 4 13 16 21 21 21 13z m-243 -144
c-10 -10 -15 -21 -12 -24 3 -2 -2 -5 -10 -5 -12 0 -10 6 7 24 25 27 39 32 15
5z"/>
<path d="M3727 3189 c7 -9 10 -19 6 -23 -4 -4 1 -4 10 0 10 3 17 7 15 8 -2 1
-12 8 -23 16 -18 14 -19 13 -8 -1z"/>
<path d="M3705 3090 c3 -5 11 -10 16 -10 6 0 7 5 4 10 -3 6 -11 10 -16 10 -6
0 -7 -4 -4 -10z"/>
<path d="M3794 3078 c-5 -7 -1 -9 13 -6 12 3 20 0 20 -7 0 -8 -7 -11 -15 -7
-10 3 -13 1 -8 -6 3 -6 -2 -16 -11 -22 -16 -10 -16 -11 4 -7 13 3 24 -1 27
-10 10 -25 7 -33 -11 -33 -14 0 -15 2 -4 9 21 13 -5 24 -28 11 -13 -6 -22 -7
-26 0 -3 5 -16 15 -28 21 -18 10 -17 7 5 -14 16 -14 36 -31 45 -37 16 -10 15
-10 -3 -5 -25 6 -74 -13 -74 -29 0 -6 -4 -4 -9 4 -13 19 -4 31 16 23 12 -5 14
-3 8 7 -6 10 -4 12 10 6 15 -5 16 -4 5 9 -11 13 -15 13 -21 3 -5 -7 -9 -9 -9
-3 0 5 -7 -1 -16 -13 -11 -17 -13 -26 -5 -36 6 -7 7 -17 3 -21 -4 -5 -1 -5 5
-1 21 12 54 16 48 5 -4 -5 -10 -7 -15 -4 -5 3 -11 1 -15 -5 -6 -9 8 -14 28
-11 5 1 6 -3 2 -9 -3 -6 -11 -8 -16 -5 -5 4 -9 1 -9 -4 0 -19 -15 -12 -31 15
-14 23 -17 24 -31 11 -12 -12 -18 -13 -28 -4 -10 10 -10 8 -1 -10 6 -12 8 -23
3 -26 -4 -2 -1 -2 6 -1 6 2 12 0 12 -5 0 -4 14 -7 30 -6 36 2 27 -12 -10 -17
-17 -2 -24 -8 -22 -20 4 -24 -6 -22 -28 5 l-19 22 6 -22 c3 -13 2 -23 -1 -23
-4 0 -11 10 -17 23 -8 19 -9 18 -3 -8 10 -51 31 -53 94 -7 19 14 62 52 95 84
50 48 57 60 45 69 -13 9 -13 10 0 6 9 -2 24 11 39 36 20 34 22 42 10 63 -13
25 -52 33 -65 12z m-30 -126 c2 -4 -5 -9 -17 -9 -17 -2 -19 0 -7 7 18 12 18
12 24 2z m-90 -68 c9 -22 8 -23 -14 -17 -21 5 -25 15 -13 26 11 11 20 8 27 -9z"/>
<path d="M2056 3059 c3 -5 13 -9 22 -9 9 0 26 -7 36 -15 19 -14 36 -12 36 5 0
6 -10 9 -22 7 -13 -1 -22 3 -21 8 1 6 -12 10 -28 11 -15 1 -26 -3 -23 -7z"/>
<path d="M3877 3011 c-30 -63 -101 -142 -181 -200 -87 -65 -256 -142 -256
-118 0 8 -3 8 -9 -2 -7 -11 -9 -11 -14 0 -4 10 -6 10 -6 -2 -1 -12 -18 -20
-63 -28 -35 -7 -83 -17 -107 -22 -24 -6 -46 -8 -48 -5 -3 2 -19 -2 -36 -9 -34
-13 -116 -26 -207 -31 -30 -2 -69 -6 -87 -10 -26 -5 -32 -2 -38 15 -5 16 -10
19 -30 11 -19 -7 -26 -5 -39 16 -9 13 -25 24 -35 24 -28 0 -91 29 -91 41 0 6
-7 9 -15 5 -10 -4 -15 1 -15 14 0 12 -5 17 -14 14 -7 -3 -16 2 -19 10 -4 9
-13 13 -22 10 -10 -4 -15 0 -15 11 0 14 -3 15 -14 6 -11 -9 -15 -6 -20 14 -4
14 -11 23 -15 20 -5 -3 -12 1 -14 7 -4 10 -6 10 -6 1 -1 -7 -6 -13 -12 -13 -6
0 -8 8 -4 19 3 11 0 23 -6 27 -7 4 -9 3 -5 -4 3 -6 2 -13 -4 -17 -5 -3 -10 1
-10 9 0 21 -52 55 -58 38 -8 -25 -23 -11 -17 17 5 25 2 31 -24 42 -24 11 -30
19 -25 34 4 14 3 16 -4 6 -7 -9 -11 -10 -17 -2 -4 7 -16 9 -28 6 -13 -4 -17
-3 -10 2 7 5 9 13 5 18 -10 14 -62 18 -62 5 0 -5 5 -10 11 -10 5 0 7 -4 4 -10
-11 -17 -25 -11 -35 16 -8 19 -15 24 -30 19 -13 -4 -22 -1 -26 9 -7 19 -44 22
-44 4 0 -8 -5 -6 -10 4 -12 20 -58 18 -71 -3 -11 -17 -12 -80 -1 -96 4 -6 20
-15 35 -18 38 -10 44 -25 10 -26 -15 -1 -32 -1 -37 0 -14 3 -26 -22 -20 -41 3
-10 1 -18 -4 -18 -6 0 -13 -7 -16 -16 -3 -8 -2 -13 2 -10 4 2 16 -3 27 -11 12
-9 15 -17 9 -19 -6 -3 -9 -16 -6 -29 2 -14 -1 -32 -8 -40 -16 -19 -54 -20 -47
-2 6 15 -28 16 -42 1 -12 -13 -30 -94 -21 -94 4 0 5 -12 2 -26 -3 -18 3 -33
24 -56 l29 -30 127 6 c71 3 147 13 172 21 49 17 108 17 103 0 -2 -5 -12 -11
-23 -12 -10 -1 -32 -5 -49 -8 -16 -3 -86 -7 -155 -10 -69 -3 -153 -7 -187 -9
-35 -2 -63 0 -63 5 0 5 8 9 18 10 11 1 8 4 -8 8 -30 9 -62 2 -54 -10 3 -5 11
-6 17 -2 7 4 6 0 -2 -10 -7 -9 -17 -15 -21 -12 -4 3 -13 -2 -19 -9 -8 -10 -9
-16 -1 -21 7 -4 7 -12 0 -25 -14 -26 -13 -30 8 -23 14 5 15 4 4 -8 -7 -8 -20
-14 -30 -14 -25 0 -30 -65 -5 -66 10 0 13 -3 5 -6 -6 -2 -10 -9 -7 -14 4 -5
-1 -6 -9 -3 -8 3 -17 13 -19 22 -4 15 -5 15 -6 1 -1 -20 20 -44 86 -94 62 -49
115 -79 128 -76 6 1 4 -3 -2 -10 -10 -10 -16 -9 -30 3 -10 8 -25 13 -33 10 -8
-2 -12 -1 -8 3 13 14 -25 35 -40 23 -9 -8 -11 -7 -6 6 6 17 -32 39 -51 28 -5
-3 -7 -2 -3 3 11 12 -23 34 -52 34 -23 0 -23 -1 -5 -9 18 -8 18 -9 2 -9 -10
-1 -20 -8 -24 -17 -3 -9 -8 -11 -12 -6 -3 6 -6 -9 -7 -33 0 -23 -8 -53 -17
-66 -22 -30 -22 -32 9 -68 21 -26 29 -29 50 -21 26 10 81 14 73 5 -3 -2 -34
-11 -70 -19 -117 -27 -138 -34 -154 -50 -9 -9 -13 -16 -9 -16 3 0 1 -7 -6 -15
-7 -8 -9 -15 -6 -15 4 0 -5 -11 -19 -26 -14 -14 -30 -22 -35 -19 -16 10 2 -28
23 -49 17 -16 28 -18 100 -11 45 4 100 8 122 10 43 4 111 -10 120 -24 3 -5
-14 -3 -38 4 -28 8 -49 10 -60 4 -10 -6 -23 -6 -35 0 -11 6 -24 6 -33 1 -7 -5
-22 -7 -33 -4 -14 5 -16 3 -10 -7 6 -10 3 -10 -11 1 -17 14 -18 13 -13 -2 4
-9 1 -19 -7 -22 -10 -3 -12 0 -8 11 5 13 2 15 -11 10 -10 -4 -22 -7 -28 -7 -6
0 5 -19 24 -42 19 -24 38 -50 42 -58 4 -9 2 -8 -7 3 -8 9 -19 17 -26 17 -6 0
-11 5 -11 10 0 6 -6 10 -13 10 -8 0 -22 9 -32 20 -10 11 -23 20 -28 20 -6 0
-2 -7 9 -15 18 -15 18 -15 0 -8 -12 4 -17 3 -13 -4 4 -6 -3 -8 -19 -5 -23 4
-24 3 -14 -22 8 -22 7 -26 -7 -26 -36 0 15 -33 52 -34 19 -1 35 -3 35 -6 0 -3
18 -6 40 -7 21 -1 50 -7 62 -14 35 -18 78 -61 78 -78 0 -13 2 -13 9 -2 5 8 11
9 15 3 3 -5 0 -12 -7 -14 -17 -7 -38 2 -31 13 3 5 -5 9 -18 10 -18 0 -19 2 -7
7 14 6 15 9 3 20 -8 7 -14 8 -14 2 0 -5 -5 -10 -11 -10 -13 0 -39 25 -39 37 0
5 -16 8 -35 8 -20 -1 -38 2 -41 7 -3 5 -13 6 -22 4 -19 -6 -91 16 -101 31 -3
6 -15 13 -26 17 -17 5 -21 1 -23 -21 -2 -21 8 -36 40 -65 43 -38 43 -38 8 -19
-37 21 -186 48 -197 37 -4 -4 -2 -15 5 -24 23 -33 25 -44 9 -78 -21 -44 -12
-43 28 3 31 36 32 36 38 14 4 -17 2 -21 -9 -17 -8 3 -14 1 -14 -4 0 -5 9 -12
20 -15 11 -4 20 -12 19 -18 -3 -27 2 -36 16 -31 8 4 15 4 15 1 0 -17 -33 -13
-51 6 -12 12 -19 16 -15 10 9 -17 -6 -17 -23 0 -10 10 -11 9 -6 -5 4 -10 3
-18 -2 -18 -5 0 -9 -9 -10 -20 -2 -18 0 -19 13 -5 21 20 21 20 16 -16 -3 -21
-7 -27 -13 -18 -4 7 -5 -6 -2 -29 5 -38 4 -41 -16 -37 -18 3 -21 0 -16 -15 4
-11 0 -29 -8 -41 -15 -20 -15 -20 -13 4 0 14 5 23 10 20 5 -3 7 0 5 6 -3 7 -9
13 -14 14 -10 2 -16 -29 -16 -93 -1 -28 -3 -31 -9 -15 -5 11 -9 14 -9 8 -1 -7
-13 -13 -28 -13 -33 0 -45 -7 -62 -35 -11 -19 -12 -19 -6 3 8 30 -18 30 -39 0
-20 -28 -20 -39 -1 -32 8 4 15 1 15 -5 0 -6 -9 -11 -21 -11 -11 0 -17 -4 -14
-10 3 -5 0 -7 -8 -4 -8 3 -19 -5 -26 -18 l-12 -23 5 23 c5 26 -15 30 -38 6
-12 -12 -16 -12 -16 -2 -1 8 -6 6 -15 -6 -8 -11 -15 -27 -15 -35 1 -13 4 -12
15 3 8 11 15 15 15 8 0 -6 7 -9 15 -6 8 4 15 1 15 -5 0 -6 -5 -11 -11 -11 -5
0 -7 -6 -3 -12 6 -10 5 -10 -7 -1 -17 14 -31 7 -47 -22 -9 -17 -10 -15 -7 15
1 19 6 42 9 51 6 13 1 16 -26 15 -18 0 -36 -5 -40 -11 -5 -6 -8 -4 -8 5 0 13
-1 13 -10 0 -5 -8 -10 -19 -10 -25 0 -5 5 -3 10 5 7 10 8 -1 4 -38 -5 -44 -3
-52 10 -52 9 0 16 8 17 18 0 14 2 14 8 -3 9 -21 -12 -37 -36 -28 -6 3 -13 -4
-16 -14 -4 -15 -5 -15 -6 -1 -1 14 -13 17 -76 16 -63 0 -75 -3 -76 -16 0 -13
-2 -13 -9 3 -7 17 -9 17 -9 3 -1 -10 -6 -18 -12 -18 -6 0 -9 7 -5 15 3 8 1 15
-3 15 -5 0 -12 -6 -14 -12 -4 -10 -6 -10 -6 0 -1 6 -6 12 -12 12 -5 0 -7 -5
-3 -12 5 -8 2 -9 -10 -5 -13 5 -19 1 -23 -13 -3 -11 -10 -20 -15 -20 -5 0 -7
8 -4 18 4 13 1 19 -9 19 -10 0 -13 -6 -9 -19 3 -10 1 -18 -5 -18 -6 0 -11 4
-11 8 0 4 -8 8 -17 8 -10 0 -28 4 -40 8 -17 5 -23 3 -23 -7 0 -8 10 -18 23
-22 45 -14 52 -16 69 -19 38 -5 27 -14 -13 -11 -25 2 -37 0 -30 -5 25 -15 1
-28 -65 -35 -55 -6 -69 -4 -85 11 -18 16 -20 16 -46 -10 -15 -15 -29 -23 -31
-17 -2 6 -9 11 -15 11 -6 0 0 -11 13 -25 13 -14 30 -23 38 -20 7 2 10 1 7 -5
-3 -5 3 -13 13 -19 10 -5 44 -45 76 -89 92 -126 140 -140 466 -143 152 -2 213
2 278 15 46 10 90 15 98 12 8 -3 13 -2 10 3 -3 5 21 12 54 16 33 4 58 11 55
15 -7 12 32 23 46 14 7 -4 9 -3 5 4 -4 6 12 14 41 21 58 12 204 68 290 110 35
17 103 47 153 66 50 19 127 55 171 80 45 25 83 45 86 45 3 0 148 95 223 147
45 31 185 137 198 150 8 7 30 26 50 41 21 15 43 33 50 40 8 7 26 19 41 27 16
8 102 69 192 137 90 68 206 150 257 183 52 33 121 81 155 107 34 26 78 56 98
67 19 11 52 37 71 59 38 42 89 74 223 142 79 40 196 102 351 189 233 129 355
243 284 266 -11 3 -20 13 -20 21 0 8 -5 14 -11 14 -6 0 -9 7 -5 15 7 19 -3 47
-15 39 -5 -3 -9 1 -9 8 0 7 -13 24 -29 38 -17 13 -27 28 -24 33 6 11 -26 47
-43 47 -7 0 -14 6 -17 13 -3 9 -9 7 -24 -5 -22 -20 -33 -23 -33 -8 0 6 7 10
16 10 8 0 13 4 9 9 -7 12 16 62 26 56 4 -3 11 0 15 6 5 8 -1 10 -20 7 -17 -4
-26 -1 -27 8 -3 28 -4 32 -11 40 -5 4 -8 18 -8 31 0 31 -16 30 -24 -2 -4 -14
-11 -25 -16 -25 -13 0 -13 17 0 25 12 8 3 46 -13 57 -7 4 -7 11 1 20 6 8 7 19
3 27 -6 9 -13 -5 -21 -40 -18 -80 -94 -225 -205 -394 -145 -219 -193 -266
-276 -267 -83 -1 -132 69 -133 192 -1 88 12 190 24 190 4 0 13 -22 20 -50 14
-57 65 -110 106 -110 42 0 96 35 165 107 169 176 265 317 274 403 2 22 1 39
-3 39 -24 -4 -32 3 -29 24 2 12 2 16 0 10 -3 -7 -9 -13 -15 -13 -5 0 -8 6 -5
13 3 8 2 19 -1 25 -4 5 -20 -16 -35 -47z m-1852 -1 c3 -5 1 -10 -4 -10 -6 0
-11 5 -11 10 0 6 2 10 4 10 3 0 8 -4 11 -10z m214 -74 c10 -12 8 -13 -8 -9
-12 3 -21 9 -21 14 0 14 16 11 29 -5z m32 -43 c13 -16 12 -17 -3 -4 -10 7 -18
15 -18 17 0 8 8 3 21 -13z m-281 -44 c0 -5 5 -7 12 -3 7 4 8 3 4 -4 -4 -6 -13
-9 -21 -5 -17 6 -20 23 -5 23 6 0 10 -5 10 -11z m31 -72 c-8 -8 -11 -8 -11 0
0 6 -3 20 -7 30 -7 17 -6 17 11 0 14 -14 16 -21 7 -30z m504 -87 c-3 -5 -11
-10 -16 -10 -6 0 -7 5 -4 10 3 6 11 10 16 10 6 0 7 -4 4 -10z m45 -25 c0 -8
-7 -15 -15 -15 -16 0 -20 12 -8 23 11 12 23 8 23 -8z m74 -34 c3 -4 -6 -6 -19
-3 -14 2 -25 6 -25 8 0 8 39 4 44 -5z m1516 -1 c0 -5 -5 -10 -11 -10 -5 0 -7
5 -4 10 3 6 8 10 11 10 2 0 4 -4 4 -10z m-1403 -26 c2 -7 -6 -10 -21 -7 -14 3
-23 10 -20 15 8 12 36 6 41 -8z m393 -19 c-7 -9 -15 -13 -19 -10 -3 3 1 10 9
15 21 14 24 12 10 -5z m-50 -16 c0 -14 -17 -10 -23 5 -4 10 -1 13 9 9 7 -3 14
-9 14 -14z m-116 -4 c-4 -8 -10 -15 -16 -15 -5 0 -6 -6 -2 -12 6 -10 4 -10 -7
0 -7 6 -20 12 -28 12 -14 0 -14 -1 -1 -10 18 -12 2 -12 -25 0 -11 5 -14 9 -7
9 7 1 11 5 8 10 -4 5 10 8 29 7 20 -2 38 1 41 5 9 14 14 10 8 -6z m86 -11 c0
-2 -9 0 -20 6 -11 6 -20 13 -20 16 0 2 9 0 20 -6 11 -6 20 -13 20 -16z m-50 6
c0 -5 -4 -10 -10 -10 -5 0 -10 5 -10 10 0 6 5 10 10 10 6 0 10 -4 10 -10z
m-195 -20 c-11 -5 -29 -8 -40 -8 -16 0 -15 2 5 8 34 11 60 11 35 0z m76 -18
c-6 -2 -9 -7 -7 -11 3 -4 -18 -7 -45 -7 -45 0 -57 5 -44 17 2 3 28 5 56 5 29
0 47 -2 40 -4z m1349 -6 c0 -11 -19 -15 -25 -6 -3 5 1 10 9 10 9 0 16 -2 16
-4z m-1603 -52 c19 -5 20 -8 8 -20 -16 -16 -120 -20 -110 -4 4 6 11 8 16 5 5
-4 9 1 9 9 0 17 35 21 77 10z m-40 -60 c-3 -3 -12 -4 -19 -1 -8 3 -5 6 6 6 11
1 17 -2 13 -5z m-797 -170 c0 -2 -9 0 -20 6 -11 6 -20 13 -20 16 0 2 9 0 20
-6 11 -6 20 -13 20 -16z m154 -190 c31 -12 15 -19 -31 -15 -40 4 -44 5 -23 12
34 10 36 10 54 3z m-76 -22 c8 -5 -1 -8 -22 -8 -19 1 -32 4 -29 9 6 9 35 9 51
-1z m-78 -12 c0 -5 -4 -10 -10 -10 -5 0 -10 5 -10 10 0 6 5 10 10 10 6 0 10
-4 10 -10z m195 -50 c3 -6 -1 -7 -9 -4 -18 7 -21 14 -7 14 6 0 13 -4 16 -10z
m-388 -27 c-4 -3 -1 -13 6 -22 11 -14 10 -14 -5 -2 -16 12 -16 31 -1 31 4 0 3
-3 0 -7z m1097 -77 c-3 -9 -12 -12 -22 -9 -15 6 -9 11 25 22 1 1 0 -5 -3 -13z
m-74 -32 c0 -3 -4 -2 -10 1 -5 3 -10 2 -10 -3 0 -5 -6 -9 -14 -9 -8 0 -11 8
-9 18 4 15 9 16 24 8 10 -5 19 -12 19 -15z m55 -4 c3 -5 1 -10 -4 -10 -6 0
-11 5 -11 10 0 6 2 10 4 10 3 0 8 -4 11 -10z m108 3 c-13 -2 -33 -2 -45 0 -13
2 -3 4 22 4 25 0 35 -2 23 -4z m-1313 -151 c0 -15 -2 -15 -10 -2 -13 20 -13
33 0 25 6 -3 10 -14 10 -23z m7 -28 c-3 -3 -12 -4 -19 -1 -8 3 -5 6 6 6 11 1
17 -2 13 -5z m1063 -118 c0 -2 -39 -38 -86 -80 -75 -65 -299 -214 -309 -204
-1 1 41 30 94 62 90 56 181 124 260 195 32 30 41 35 41 27z m-280 -26 c8 -5
11 -10 5 -10 -5 0 -17 5 -25 10 -8 5 -10 10 -5 10 6 0 17 -5 25 -10z m60 -30
c18 -12 2 -12 -25 0 -13 6 -15 9 -5 9 8 0 22 -4 30 -9z m-221 -103 c0 -9 -2
-8 -6 1 -2 6 -10 9 -15 6 -7 -4 -8 -2 -4 5 9 13 26 5 25 -12z m-801 -15 c-2
-8 3 -17 11 -20 10 -3 12 0 8 12 -4 9 -2 16 3 16 6 0 10 -8 10 -17 1 -14 4
-12 16 7 l15 25 -6 -28 c-4 -19 -2 -26 5 -22 5 3 10 2 10 -3 0 -6 -7 -13 -16
-16 -8 -3 -12 -2 -9 4 3 6 -1 10 -9 10 -10 0 -13 -6 -10 -17 5 -15 3 -15 -7 1
-12 19 -12 19 -25 1 -10 -14 -14 -15 -14 -4 -1 8 -8 1 -16 -15 -13 -24 -14
-30 -3 -37 12 -7 12 -10 0 -21 -10 -10 -12 -10 -7 0 4 6 2 12 -4 12 -8 0 -10
9 -5 28 8 29 12 54 14 89 1 16 6 20 21 16 11 -3 19 -12 18 -21z m932 16 l25 1
-24 -13 c-20 -11 -27 -11 -42 3 -24 19 -24 25 -1 16 9 -4 28 -7 42 -7z m-830
-6 c0 -5 -7 -9 -15 -9 -8 0 -12 4 -9 9 3 4 9 8 15 8 5 0 9 -4 9 -8z m427 -44
c-3 -8 -6 -5 -6 6 -1 11 2 17 5 13 3 -3 4 -12 1 -19z m-520 -40 c-3 -8 -6 -5
-6 6 -1 11 2 17 5 13 3 -3 4 -12 1 -19z m530 0 c-3 -8 -6 -5 -6 6 -1 11 2 17
5 13 3 -3 4 -12 1 -19z m279 -53 c-11 -8 -25 -15 -30 -15 -6 1 0 7 14 15 32
19 40 18 16 0z m-381 -45 c-3 -5 -12 -10 -18 -10 -7 0 -6 4 3 10 19 12 23 12
15 0z m-535 -4 c0 -3 -4 -8 -10 -11 -5 -3 -10 -1 -10 4 0 6 5 11 10 11 6 0 10
-2 10 -4z m390 -6 c0 -5 -2 -10 -4 -10 -3 0 -8 5 -11 10 -3 6 -1 10 4 10 6 0
11 -4 11 -10z m65 -10 c3 -5 1 -10 -4 -10 -6 0 -11 5 -11 10 0 6 2 10 4 10 3
0 8 -4 11 -10z m-85 -20 c0 -5 -2 -10 -4 -10 -3 0 -8 5 -11 10 -3 6 -1 10 4
10 6 0 11 -4 11 -10z m-533 -22 c-3 -8 -6 -5 -6 6 -1 11 2 17 5 13 3 -3 4 -12
1 -19z m30 -49 c-11 -18 -12 -18 -19 -1 -11 27 -9 30 11 25 17 -4 18 -8 8 -24z
m272 5 c6 4 11 2 11 -4 0 -17 -33 -8 -37 10 -4 12 -3 13 5 1 5 -7 15 -10 21
-7z m-78 -17 c-10 -9 -11 -8 -5 6 3 10 9 15 12 12 3 -3 0 -11 -7 -18z m227 -3
c-11 -11 -18 -12 -22 -5 -4 6 0 11 8 11 9 0 16 5 16 12 0 6 3 8 7 4 4 -3 0
-14 -9 -22z m-127 -11 c-12 -20 -14 -14 -5 12 4 9 9 14 11 11 3 -2 0 -13 -6
-23z m163 -9 c3 -8 2 -12 -4 -9 -6 3 -10 10 -10 16 0 14 7 11 14 -7z m67 -15
c-5 -13 -10 -19 -10 -12 -1 15 10 45 15 40 3 -2 0 -15 -5 -28z m-745 5 c-3 -9
-6 -20 -6 -25 0 -5 -7 -9 -15 -9 -9 0 -20 -10 -25 -22 -8 -22 -9 -21 -7 5 1
15 5 27 9 27 4 0 5 7 2 15 -5 11 -2 13 10 9 9 -3 16 -1 16 5 0 6 5 11 11 11 6
0 8 -7 5 -16z m821 -10 c2 -15 1 -16 -5 -3 -4 9 -15 15 -25 13 -9 -1 -15 1
-12 6 9 15 40 3 42 -16z m-106 -11 c-12 -20 -14 -14 -5 12 4 9 9 14 11 11 3
-2 0 -13 -6 -23z m-556 -1 c-16 -2 -36 -11 -42 -20 -13 -16 -17 -5 -8 20 4 10
17 12 43 9 36 -5 36 -6 7 -9z m70 -3 c-7 -10 -35 -1 -35 11 0 5 9 6 20 3 11
-3 17 -9 15 -14z m327 -1 c-7 -7 -12 -8 -12 -2 0 14 12 26 19 19 2 -3 -1 -11
-7 -17z m318 15 c0 -1 -8 -7 -18 -12 -13 -7 -19 -6 -19 2 0 7 9 13 19 13 10 0
18 -1 18 -3z m-550 -28 c-7 -9 -15 -13 -17 -11 -7 7 7 26 19 26 6 0 6 -6 -2
-15z m47 9 c-3 -3 -12 -4 -19 -1 -8 3 -5 6 6 6 11 1 17 -2 13 -5z m443 -14
c-8 -5 -22 -9 -30 -9 -10 0 -8 3 5 9 27 12 43 12 25 0z m-772 -62 c-1 -18 -3
-27 -5 -20 -6 16 -24 16 -20 0 1 -7 -8 -13 -21 -14 -16 -1 -17 0 -3 3 13 3 17
10 14 24 -4 13 0 19 11 19 9 0 16 5 16 10 0 6 2 10 4 10 3 0 4 -15 4 -32z
m596 19 c3 3 6 1 6 -5 0 -16 -12 -15 -36 4 -18 15 -18 15 2 5 12 -6 24 -7 28
-4z m-554 -23 c0 -8 5 -12 10 -9 6 4 8 11 5 16 -4 5 3 9 15 9 12 0 18 -4 15
-10 -4 -6 10 -10 34 -10 23 0 41 4 41 9 0 5 -10 7 -22 5 l-23 -5 23 10 c12 6
29 8 37 4 14 -5 14 -7 -2 -18 -24 -16 -163 -29 -163 -14 0 5 5 7 11 3 8 -4 9
1 4 16 -5 15 -4 20 4 16 6 -4 11 -14 11 -22z m-264 -46 c-15 -10 -16 -6 -9 22
6 22 7 22 13 4 4 -10 2 -22 -4 -26z m51 10 c-3 -7 -5 -2 -5 12 0 14 2 19 5 13
2 -7 2 -19 0 -25z m-177 2 c12 -8 11 -10 -7 -10 -13 0 -23 5 -23 10 0 13 11
13 30 0z m265 0 c-3 -5 -12 -10 -18 -10 -7 0 -6 4 3 10 19 12 23 12 15 0z
m375 -26 c0 -2 -13 2 -30 11 -16 9 -30 18 -30 21 0 2 14 -2 30 -11 17 -9 30
-18 30 -21z m-563 20 c-3 -3 -12 -4 -19 -1 -8 3 -5 6 6 6 11 1 17 -2 13 -5z
m153 -4 c0 -5 -2 -10 -4 -10 -3 0 -8 5 -11 10 -3 6 -1 10 4 10 6 0 11 -4 11
-10z m475 -80 l20 -25 -22 19 c-13 11 -23 24 -23 29 0 6 1 8 3 6 1 -2 11 -15
22 -29z m40 -61 c9 -17 15 -33 13 -35 -3 -2 -12 12 -21 31 -21 43 -13 47 8 4z"/>
<path d="M1290 1335 c0 -8 4 -15 10 -15 5 0 7 7 4 15 -4 8 -8 15 -10 15 -2 0
-4 -7 -4 -15z"/>
<path d="M3756 3052 c-2 -4 4 -9 15 -9 11 -1 17 2 14 8 -7 11 -22 12 -29 1z"/>
<path d="M2150 3022 c0 -14 11 -21 26 -15 8 3 11 9 8 14 -7 11 -34 12 -34 1z"/>
<path d="M3575 2869 c-4 -6 -4 -13 -1 -16 3 -4 6 -1 6 6 0 7 5 9 12 5 7 -4 8
-3 4 4 -9 15 -13 15 -21 1z"/>
<path d="M3183 2803 c4 -3 1 -13 -6 -22 -11 -14 -10 -14 5 -2 16 12 16 31 1
31 -4 0 -3 -3 0 -7z"/>
<path d="M3537 2793 c4 -11 8 -12 13 -3 6 9 9 9 12 -1 3 -8 -1 -22 -10 -31
-19 -22 -9 -24 12 -2 9 9 16 11 16 4 0 -6 4 -9 10 -5 5 3 -1 16 -13 28 -25 25
-48 31 -40 10z"/>
<path d="M1926 2752 c-2 -4 -1 -14 3 -20 6 -10 11 -9 21 3 11 13 10 14 -5 9
-13 -5 -16 -4 -11 4 4 7 5 12 2 12 -3 0 -7 -4 -10 -8z"/>
<path d="M3485 2731 c-6 -5 -19 -11 -30 -14 -15 -4 -13 -5 8 -6 15 0 27 4 27
10 0 5 4 8 8 5 4 -2 14 -1 22 5 12 7 11 9 -5 9 -12 0 -25 -4 -30 -9z"/>
<path d="M3320 2685 c0 -8 4 -15 10 -15 5 0 7 7 4 15 -4 8 -8 15 -10 15 -2 0
-4 -7 -4 -15z"/>
<path d="M3370 2690 c-12 -8 -11 -10 8 -10 12 0 22 5 22 10 0 13 -11 13 -30 0z"/>
<path d="M4090 2689 c0 -5 5 -7 10 -4 6 3 10 8 10 11 0 2 -4 4 -10 4 -5 0 -10
-5 -10 -11z"/>
<path d="M3280 2685 c0 -2 7 -8 15 -15 12 -10 15 -10 15 2 0 8 -7 15 -15 15
-8 0 -15 -1 -15 -2z"/>
<path d="M4106 2010 c9 -37 75 -191 97 -225 17 -27 18 -27 11 -5 -4 14 -24 61
-44 105 -63 136 -71 152 -64 125z"/>
<path d="M3745 1775 c4 -36 84 -210 92 -201 2 2 -13 37 -33 77 -21 41 -43 94
-51 119 l-13 45 5 -40z"/>
<path d="M1357 1714 c-14 -15 -6 -24 34 -34 57 -16 72 -6 24 16 -22 10 -43 19
-46 21 -3 2 -8 0 -12 -3z"/>
<path d="M3435 1611 c7 -34 95 -223 95 -206 0 11 -90 227 -97 235 -3 3 -2 -10
2 -29z"/>
<path d="M3194 1453 c9 -37 68 -194 72 -190 3 3 -12 63 -24 97 -3 8 -7 23 -9
33 -1 10 -10 31 -18 46 -8 16 -11 31 -8 35 4 3 1 6 -6 6 -9 0 -11 -9 -7 -27z"/>
<path d="M1190 1365 c-11 -13 -10 -14 4 -9 9 3 16 10 16 15 0 13 -6 11 -20 -6z"/>
<path d="M1230 1335 c0 -14 4 -25 9 -25 4 0 6 11 3 25 -2 14 -6 25 -8 25 -2 0
-4 -11 -4 -25z"/>
<path d="M1211 1314 c0 -11 3 -14 6 -6 3 7 2 16 -1 19 -3 4 -6 -2 -5 -13z"/>
<path d="M2970 1310 c0 -30 64 -178 68 -157 2 10 -2 24 -8 32 -7 8 -10 22 -6
30 3 9 2 13 -4 10 -6 -4 -10 7 -10 24 0 17 -4 31 -10 31 -5 0 -10 9 -10 19 0
11 -4 23 -10 26 -5 3 -10 -3 -10 -15z"/>
<path d="M1160 1224 c0 -10 -3 -14 -7 -11 -3 4 -12 -1 -19 -11 -16 -21 -17
-32 -4 -32 6 0 10 8 11 18 0 14 2 14 9 -3 7 -18 8 -18 14 -2 14 40 15 47 6 52
-6 4 -10 -2 -10 -11z"/>
<path d="M2770 1148 c1 -17 60 -127 60 -111 0 6 -10 33 -22 60 -12 26 -21 51
-20 56 1 4 -2 7 -8 7 -5 0 -10 -6 -10 -12z"/>
<path d="M1000 1110 c-6 -11 -7 -20 -2 -20 6 0 12 9 15 20 3 11 3 20 1 20 -2
0 -8 -9 -14 -20z"/>
<path d="M965 1090 c3 -5 8 -10 11 -10 2 0 4 5 4 10 0 6 -5 10 -11 10 -5 0 -7
-4 -4 -10z"/>
<path d="M691 983 c-1 -6 -4 -20 -7 -30 -5 -17 -5 -17 6 0 6 10 9 23 6 30 -3
9 -5 9 -5 0z"/>
<path d="M768 967 c4 -15 2 -18 -8 -12 -8 5 -11 3 -8 -5 8 -26 35 -19 35 9 0
15 -6 28 -12 28 -7 0 -10 -9 -7 -20z"/>
<path d="M601 957 c-13 -21 -12 -21 5 -5 10 10 16 20 13 22 -3 3 -11 -5 -18
-17z"/>
<path d="M710 960 c-6 -12 -9 -24 -7 -27 3 -2 11 5 17 17 6 12 9 24 7 27 -3 2
-11 -5 -17 -17z"/>
<path d="M2500 966 c0 -14 72 -148 76 -143 8 8 -51 140 -64 145 -7 2 -12 1
-12 -2z"/>
<path d="M625 949 c-4 -6 -4 -13 -1 -16 3 -4 6 -1 6 6 0 7 5 9 12 5 7 -4 8 -3
4 4 -9 15 -13 15 -21 1z"/>
<path d="M302 844 c-7 -8 -8 -14 -3 -14 10 0 25 19 20 25 -2 1 -10 -3 -17 -11z"/>
<path d="M2230 776 c0 -2 16 -37 35 -77 19 -41 34 -67 34 -59 0 8 -8 33 -18
55 -10 22 -18 42 -19 45 -3 19 -16 40 -23 40 -5 0 -9 -2 -9 -4z"/>
<path d="M1931 647 c-1 -12 61 -139 65 -134 6 5 -29 91 -48 118 -9 13 -17 20
-17 16z"/>
<path d="M1586 512 c-6 -11 39 -105 58 -121 27 -22 27 -8 1 44 -14 26 -25 54
-25 61 0 14 -27 27 -34 16z"/>
<path d="M258 418 c31 -34 29 -51 -4 -47 -4 0 -12 -10 -18 -23 -10 -19 -9 -25
3 -33 29 -19 85 -34 226 -60 203 -37 446 -57 730 -59 244 -1 251 0 272 21 12
12 19 24 16 27 -3 3 -1 11 5 19 9 10 -2 12 -57 9 l-68 -4 -28 71 c-14 39 -31
74 -37 77 -20 13 -20 -7 2 -60 32 -81 26 -99 -35 -108 -69 -9 -287 -9 -301 0
-7 4 -17 27 -24 52 -18 69 -25 70 -30 5 l-5 -60 -60 3 c-58 2 -253 28 -287 38
-9 3 -20 21 -25 42 l-9 37 -17 -32 c-10 -18 -19 -33 -21 -33 -16 0 -91 40
-150 79 -98 65 -104 68 -78 39z"/>
</g>
</svg>
